# Blender 3.3.1
# www.blender.org
mtllib Leia.mtl
o Face
v 0.997371 2.998442 -0.998779
v 0.999721 0.998450 -1.004110
v 1.000275 2.993114 1.001212
v 1.002625 0.993123 0.995881
v -1.002625 2.996084 -0.995881
v -1.000275 0.996092 -1.001212
v -0.999721 2.990757 1.004110
v -0.997371 0.990765 0.998779
vn -0.0012 1.0000 0.0027
vn 0.0015 -0.0027 1.0000
vn -1.0000 -0.0012 0.0014
vn 0.0012 -1.0000 -0.0027
vn 1.0000 0.0012 -0.0014
vn -0.0015 0.0027 -1.0000
vt 0.625000 0.500000
vt 0.375000 0.500000
vt 0.625000 0.750000
vt 0.375000 0.750000
vt 0.875000 0.500000
vt 0.625000 0.250000
vt 0.125000 0.500000
vt 0.375000 0.250000
vt 0.875000 0.750000
vt 0.625000 1.000000
vt 0.625000 0.000000
vt 0.375000 1.000000
vt 0.375000 0.000000
vt 0.125000 0.750000
s 0
usemtl Material
f 1/1/1 5/5/1 7/9/1 3/3/1
f 4/4/2 3/3/2 7/10/2 8/12/2
f 8/13/3 7/11/3 5/6/3 6/8/3
f 6/7/4 2/2/4 4/4/4 8/14/4
f 2/2/5 1/1/5 3/3/5 4/4/5
f 6/8/6 5/6/6 1/1/6 2/2/6
o Right_Hair
v 0.707107 2.697724 -1.731581
v 0.707107 1.283510 -1.731581
v -0.707107 1.283510 -1.731581
v -0.707107 2.697724 -1.731581
v -0.000000 1.990617 -0.981581
vn 0.7276 -0.0000 0.6860
vn -0.0000 -0.7276 0.6860
vn -0.0000 -0.0000 -1.0000
vn -0.7276 -0.0000 0.6860
vn -0.0000 0.7276 0.6860
vt 0.750000 0.490000
vt 0.250000 0.490000
vt 0.490000 0.250000
vt 0.990000 0.250000
vt 0.750000 0.010000
vt 0.250000 0.010000
vt 0.510000 0.250000
vt 0.010000 0.250000
vt 0.250000 0.250000
s 0
usemtl Material.003
f 9/16/7 13/23/7 10/17/7
f 10/17/8 13/23/8 11/20/8
f 9/15/9 10/18/9 11/19/9 12/21/9
f 11/20/10 13/23/10 12/22/10
f 12/22/11 13/23/11 9/16/11
o Left_Hair
v -0.707107 1.291891 1.731832
v 0.707107 1.291891 1.731832
v 0.707107 2.706105 1.731832
v -0.707107 2.706105 1.731832
v -0.000000 1.998998 0.981832
vn -0.0000 -0.7276 -0.6860
vn 0.7276 -0.0000 -0.6860
vn -0.0000 -0.0000 1.0000
vn -0.0000 0.7276 -0.6860
vn -0.7276 -0.0000 -0.6860
vt 0.750000 0.490000
vt 0.250000 0.490000
vt 0.490000 0.250000
vt 0.990000 0.250000
vt 0.750000 0.010000
vt 0.250000 0.010000
vt 0.510000 0.250000
vt 0.010000 0.250000
vt 0.250000 0.250000
s 0
usemtl Material.004
f 14/25/12 18/32/12 15/26/12
f 15/26/13 18/32/13 16/29/13
f 14/24/14 15/27/14 16/28/14 17/30/14
f 16/29/15 18/32/15 17/31/15
f 17/31/16 18/32/16 14/25/16
o Chest
v 2.121320 -3.245513 -0.000020
v 2.121320 0.997127 -0.000020
v -2.121320 0.997127 -0.000020
v -2.121320 -3.245513 -0.000020
v 0.000000 -1.124193 -2.000020
vn 0.6860 -0.0000 -0.7276
vn -0.0000 0.6860 -0.7276
vn -0.0000 -0.0000 1.0000
vn -0.6860 -0.0000 -0.7276
vn -0.0000 -0.6860 -0.7276
vt 0.750000 0.490000
vt 0.250000 0.490000
vt 0.490000 0.250000
vt 0.990000 0.250000
vt 0.750000 0.010000
vt 0.250000 0.010000
vt 0.510000 0.250000
vt 0.010000 0.250000
vt 0.250000 0.250000
s 0
usemtl Material.001
f 19/34/17 23/41/17 20/35/17
f 20/35/18 23/41/18 21/38/18
f 19/33/19 20/36/19 21/37/19 22/39/19
f 21/38/20 23/41/20 22/40/20
f 22/40/21 23/41/21 19/34/21
o Dress
v -1.414214 -6.113670 -1.281930
v 1.414214 -6.113670 -1.281930
v 1.414214 -6.113670 1.546497
v -1.414214 -6.113670 1.546497
v 0.000000 -4.613670 0.132284
vn -0.0000 0.6860 -0.7276
vn 0.7276 0.6860 -0.0000
vn -0.0000 -1.0000 -0.0000
vn -0.0000 0.6860 0.7276
vn -0.7276 0.6860 -0.0000
vt 0.750000 0.490000
vt 0.250000 0.490000
vt 0.490000 0.250000
vt 0.990000 0.250000
vt 0.750000 0.010000
vt 0.250000 0.010000
vt 0.510000 0.250000
vt 0.010000 0.250000
vt 0.250000 0.250000
s 0
usemtl Material.006
f 24/43/22 28/50/22 25/44/22
f 25/44/23 28/50/23 26/47/23
f 24/42/24 25/45/24 26/46/24 27/48/24
f 26/47/25 28/50/25 27/49/25
f 27/49/26 28/50/26 24/43/26
o Gun
v -0.734853 -0.526626 -1.497956
v -0.734853 0.180150 -2.587806
v -0.734853 -0.526626 -2.847094
v -0.734853 0.180150 -3.936943
v 0.734853 -0.526626 -1.497956
v 0.734853 0.180150 -2.587806
v 0.734853 -0.526626 -2.847094
v 0.734853 0.180150 -3.936943
vn -1.0000 -0.0000 -0.0000
vn -0.0000 -0.8390 -0.5441
vn 1.0000 -0.0000 -0.0000
vn -0.0000 0.8390 0.5441
vn -0.0000 -1.0000 -0.0000
vn -0.0000 1.0000 -0.0000
vt 0.375000 0.000000
vt 0.375000 1.000000
vt 0.125000 0.750000
vt 0.625000 0.000000
vt 0.625000 1.000000
vt 0.875000 0.750000
vt 0.375000 0.250000
vt 0.125000 0.500000
vt 0.625000 0.250000
vt 0.875000 0.500000
vt 0.375000 0.750000
vt 0.625000 0.750000
vt 0.375000 0.500000
vt 0.625000 0.500000
s 0
usemtl Material.002
f 29/51/27 30/54/27 32/59/27 31/57/27
f 31/57/28 32/59/28 36/64/28 35/63/28
f 35/63/29 36/64/29 34/62/29 33/61/29
f 33/61/30 34/62/30 30/55/30 29/52/30
f 31/58/31 35/63/31 33/61/31 29/53/31
f 36/64/32 32/60/32 30/56/32 34/62/32
o Legs
v 2.120552 -1.880214 -1.290706
v 2.120554 -6.122854 -1.287453
v -2.122086 -6.122853 -1.284200
v -2.122087 -1.880214 -1.287453
v 0.000767 -4.000000 0.712545
vn 0.6866 0.0006 0.7271
vn 0.0006 -0.6854 0.7281
vn -0.0008 -0.0008 -1.0000
vn -0.6854 0.0006 0.7281
vn 0.0006 0.6866 0.7271
vt 0.750000 0.490000
vt 0.250000 0.490000
vt 0.490000 0.250000
vt 0.990000 0.250000
vt 0.750000 0.010000
vt 0.250000 0.010000
vt 0.510000 0.250000
vt 0.010000 0.250000
vt 0.250000 0.250000
s 0
usemtl Material.005
f 37/66/33 41/73/33 38/67/33
f 38/67/34 41/73/34 39/70/34
f 37/65/35 38/68/35 39/69/35 40/71/35
f 39/70/36 41/73/36 40/72/36
f 40/72/37 41/73/37 37/66/37
